<?xml version="1.0" standalone="no"?>
<!DOCTYPE svg PUBLIC "-//W3C//DTD SVG 20010904//EN"
 "http://www.w3.org/TR/2001/REC-SVG-20010904/DTD/svg10.dtd">
<svg version="1.0" xmlns="http://www.w3.org/2000/svg"
 width="512.000000pt" height="512.000000pt" viewBox="0 0 512.000000 512.000000"
 preserveAspectRatio="xMidYMid meet">

<g transform="translate(0.000000,512.000000) scale(0.100000,-0.100000)"
stroke="none">
<path d="M2385 4954 c-16 -2 -73 -9 -125 -15 -511 -58 -1018 -306 -1395 -684
-380 -379 -609 -847 -687 -1400 -17 -118 -16 -474 1 -595 75 -543 308 -1018
686 -1396 374 -374 857 -611 1395 -685 123 -17 477 -17 600 0 541 74 1018 308
1395 686 377 376 613 857 686 1395 17 123 17 478 0 600 -74 541 -308 1017
-686 1396 -368 368 -835 602 -1360 680 -96 14 -448 27 -510 18z m376 -324
c821 -82 1518 -640 1773 -1420 141 -432 141 -870 0 -1300 -329 -1005 -1371
-1605 -2403 -1384 -630 135 -1155 544 -1437 1119 -505 1034 -82 2273 951 2781
345 170 738 241 1116 204z"/>
<path d="M2400 3185 c0 -540 2 -661 14 -688 8 -18 192 -210 420 -437 l406
-405 112 113 113 112 -373 373 -372 372 0 608 0 607 -160 0 -160 0 0 -655z"/>
</g>
</svg>
