<svg width="67" height="10" viewBox="0 0 67 10"  xmlns="http://www.w3.org/2000/svg">
<path d="M3.28387 8.99991H0.727051L5.0566 0.272639H8.29523L9.72705 8.99991H7.17023L6.31796 2.67605H6.24978L3.28387 8.99991ZM3.38614 5.55673H8.19296L7.88614 7.32946H3.07932L3.38614 5.55673Z"/>
<path d="M11.1676 8.99991L12.6165 0.272639H16.3835C17.0312 0.272639 17.5781 0.390536 18.0241 0.626332C18.4702 0.862127 18.7912 1.20162 18.9872 1.6448C19.1832 2.08798 19.2301 2.61923 19.1278 3.23855C19.0256 3.86355 18.7997 4.39054 18.4503 4.81951C18.1037 5.24565 17.6619 5.56951 17.125 5.7911C16.5909 6.00985 15.9915 6.11923 15.3267 6.11923H13.0767L13.3835 4.27832H15.1562C15.4347 4.27832 15.679 4.24423 15.8892 4.17605C16.0994 4.10503 16.2699 3.99423 16.4006 3.84366C16.5312 3.69025 16.6165 3.48855 16.6562 3.23855C16.696 2.98855 16.6761 2.78542 16.5966 2.62917C16.517 2.47008 16.3849 2.3536 16.2003 2.27974C16.0156 2.20304 15.7869 2.16468 15.5142 2.16468H14.679L13.5369 8.99991H11.1676ZM16.946 4.99423L18.4631 8.99991H15.8892L14.4233 4.99423H16.946Z"/>
<path d="M20.7868 2.18173L21.1106 0.272639H28.6959L28.372 2.18173H25.747L24.622 8.99991H22.2868L23.4118 2.18173H20.7868Z"/>
<path d="M28.7387 8.99991L30.1876 0.272639H36.4773L36.1535 2.18173H32.233L31.9944 3.68173H35.591L35.2671 5.59082H31.6705L31.4319 7.09082H35.3353L35.0114 8.99991H28.7387Z"/>
<path d="M36.8035 8.99991L38.2524 0.272639H42.0195C42.6672 0.272639 43.2141 0.390536 43.6601 0.626332C44.1061 0.862127 44.4271 1.20162 44.6231 1.6448C44.8192 2.08798 44.866 2.61923 44.7638 3.23855C44.6615 3.86355 44.4356 4.39054 44.0862 4.81951C43.7396 5.24565 43.2979 5.56951 42.7609 5.7911C42.2268 6.00985 41.6274 6.11923 40.9626 6.11923H38.7126L39.0195 4.27832H40.7922C41.0706 4.27832 41.3149 4.24423 41.5251 4.17605C41.7354 4.10503 41.9058 3.99423 42.0365 3.84366C42.1672 3.69025 42.2524 3.48855 42.2922 3.23855C42.332 2.98855 42.3121 2.78542 42.2325 2.62917C42.153 2.47008 42.0209 2.3536 41.8362 2.27974C41.6516 2.20304 41.4229 2.16468 41.1501 2.16468H40.3149L39.1729 8.99991H36.8035ZM42.582 4.99423L44.099 8.99991H41.5251L40.0592 4.99423H42.582Z"/>
<path d="M49.3545 0.272639L47.9057 8.99991H45.5364L46.9852 0.272639H49.3545Z"/>
<path d="M56.2422 0.272639H58.6115L57.6825 5.86355C57.5746 6.52832 57.3217 7.1036 56.924 7.5894C56.5291 8.07235 56.0263 8.44593 55.4155 8.71014C54.8047 8.9715 54.1257 9.10218 53.3785 9.10218C52.6257 9.10218 51.9893 8.9715 51.4694 8.71014C50.9496 8.44593 50.5717 8.07235 50.3359 7.5894C50.103 7.1036 50.0405 6.52832 50.1484 5.86355L51.0774 0.272639H53.4467L52.5518 5.659C52.5092 5.92889 52.5305 6.16895 52.6158 6.37917C52.701 6.5894 52.8388 6.75559 53.0291 6.87775C53.2195 6.99707 53.4496 7.05673 53.7195 7.05673C53.9922 7.05673 54.2436 6.99707 54.4737 6.87775C54.7067 6.75559 54.8998 6.5894 55.0533 6.37917C55.2067 6.16895 55.3047 5.92889 55.3473 5.659L56.2422 0.272639Z"/>
<path d="M64.5819 2.99991C64.6075 2.71866 64.5393 2.49849 64.3773 2.3394C64.2154 2.17747 63.9427 2.0965 63.5592 2.0965C63.3148 2.0965 63.1103 2.12491 62.9455 2.18173C62.7836 2.23855 62.6572 2.31667 62.5663 2.4161C62.4782 2.51554 62.4228 2.63059 62.4001 2.76128C62.3745 2.86355 62.3759 2.9573 62.4043 3.04253C62.4356 3.12491 62.4938 3.2002 62.579 3.26838C62.6671 3.33656 62.7822 3.39764 62.9242 3.45162C63.0691 3.50559 63.241 3.55389 63.4398 3.5965L64.1217 3.74991C64.5876 3.85218 64.9782 3.98713 65.2935 4.15474C65.6117 4.31951 65.8617 4.51554 66.0435 4.74281C66.2253 4.97008 66.3447 5.22434 66.4015 5.50559C66.4611 5.78684 66.4626 6.09366 66.4057 6.42605C66.3092 6.99991 66.0861 7.48571 65.7367 7.88343C65.3873 8.28116 64.9313 8.58372 64.3688 8.7911C63.8063 8.99849 63.1557 9.10218 62.4171 9.10218C61.6614 9.10218 61.0194 8.98997 60.491 8.76554C59.9654 8.53826 59.5847 8.19167 59.3489 7.72576C59.116 7.25701 59.0592 6.659 59.1785 5.93173H61.4285C61.3944 6.19878 61.4228 6.42321 61.5137 6.60503C61.6046 6.78684 61.7509 6.92463 61.9526 7.01838C62.1543 7.11213 62.4057 7.159 62.7069 7.159C62.9626 7.159 63.1813 7.12775 63.3631 7.06525C63.545 7.00275 63.6884 6.9161 63.7935 6.80531C63.8986 6.69451 63.9626 6.56809 63.9853 6.42605C64.008 6.29537 63.9853 6.17889 63.9171 6.07662C63.8489 5.97434 63.7253 5.88201 63.5464 5.79963C63.3674 5.71724 63.1217 5.64196 62.8092 5.57378L61.9739 5.38628C61.2324 5.21582 60.6728 4.93457 60.2949 4.54253C59.9171 4.15048 59.7836 3.61355 59.8944 2.93173C59.9853 2.37491 60.214 1.88912 60.5805 1.47434C60.9498 1.05673 61.4185 0.732866 61.9867 0.502752C62.5577 0.269798 63.1898 0.15332 63.883 0.15332C64.5876 0.15332 65.177 0.271218 65.6515 0.507014C66.1288 0.742809 66.4711 1.07378 66.6785 1.49991C66.8887 1.92605 66.9455 2.42605 66.8489 2.99991H64.5819Z"/>
</svg>
