<?xml version="1.0" standalone="no"?>
<!DOCTYPE svg PUBLIC "-//W3C//DTD SVG 20010904//EN"
 "http://www.w3.org/TR/2001/REC-SVG-20010904/DTD/svg10.dtd">
<svg version="1.0" xmlns="http://www.w3.org/2000/svg"
 width="512.000000pt" height="512.000000pt" viewBox="0 0 512.000000 512.000000"
 preserveAspectRatio="xMidYMid meet">

<g transform="translate(0.000000,512.000000) scale(0.100000,-0.100000)"
fill="#000000" stroke="none">
<path d="M1140 4624 c-84 -23 -136 -58 -240 -163 -189 -190 -281 -362 -337
-631 -27 -129 -24 -404 6 -575 102 -580 429 -1164 936 -1670 303 -304 604
-523 950 -694 704 -348 1363 -361 1791 -35 89 68 236 219 262 271 61 119 67
258 16 374 -25 58 -58 94 -323 362 -163 164 -316 311 -341 327 -123 78 -314
80 -437 4 -15 -9 -105 -94 -199 -187 -137 -136 -175 -168 -191 -163 -34 11
-253 158 -368 248 -343 267 -689 653 -880 981 l-27 48 169 172 c208 212 235
256 241 402 5 105 -11 169 -59 245 -15 25 -160 176 -321 336 -308 307 -337
330 -446 353 -70 15 -135 13 -202 -5z m163 -295 c31 -16 535 -519 553 -551 8
-15 14 -46 14 -69 0 -42 -3 -46 -214 -258 -118 -119 -219 -229 -225 -244 -20
-52 -12 -88 40 -186 221 -415 633 -883 1064 -1208 105 -80 289 -199 395 -258
168 -92 164 -94 425 165 116 114 220 213 232 219 28 14 78 14 106 0 31 -16
535 -519 553 -551 37 -70 7 -130 -118 -240 -128 -111 -234 -165 -403 -204
-107 -25 -369 -26 -505 -1 -313 57 -651 200 -958 404 -962 640 -1571 1739
-1386 2501 8 37 38 113 65 169 40 85 63 117 136 194 49 51 102 100 118 111 34
20 76 23 108 7z"/>
<path d="M2440 4482 c-100 -50 -108 -197 -15 -258 19 -12 61 -20 143 -26 147
-10 275 -31 388 -63 660 -192 1136 -789 1170 -1470 7 -135 16 -166 59 -203 72
-64 177 -45 225 39 22 40 23 48 17 168 -40 792 -558 1476 -1312 1729 -251 85
-590 127 -675 84z"/>
<path d="M2474 3859 c-70 -14 -114 -69 -114 -142 0 -29 7 -61 18 -79 30 -51
66 -66 192 -77 262 -23 459 -113 635 -289 173 -173 260 -365 289 -633 15 -144
26 -168 92 -199 83 -41 181 4 205 93 21 79 -15 326 -71 478 -158 433 -544 757
-990 832 -110 19 -213 25 -256 16z"/>
</g>
</svg>
