
<svg xmlns="http://www.w3.org/2000/svg" aria-hidden="true" style="position:absolute;width:0;height:0;overflow:hidden">
  <defs>
    <symbol id="icon-telegram" viewBox="0 0 32 32">
      <path d="m13.04 24.867.373-5.64L23.653 10c.453-.413-.093-.613-.693-.253l-12.64 7.987-5.467-1.733c-1.173-.333-1.187-1.147.267-1.733l21.293-8.213c.973-.44 1.907.24 1.533 1.733l-3.627 17.08c-.253 1.213-.987 1.507-2 .947l-5.52-4.08-2.653 2.573c-.307.307-.56.56-1.107.56z"/>
    </symbol>
    <symbol id="icon-viber" viewBox="0 0 32 32">
      <path d="M15.198.005C12.63.036 7.109.458 4.021 3.291 1.724 5.567.922 8.932.828 13.093.75 17.239.656 25.025 8.161 27.145v3.229s-.047 1.292.807 1.557c1.052.333 1.651-.661 2.651-1.729l1.865-2.109c5.135.427 9.068-.557 9.521-.703 1.042-.333 6.911-1.083 7.87-8.87.984-8.042-.479-13.109-3.12-15.401h-.016c-.797-.734-4-3.068-11.156-3.094 0 0-.531-.036-1.385-.021zm.088 2.261c.729-.005 1.172.026 1.172.026 6.057.016 8.948 1.839 9.63 2.453 2.224 1.906 3.37 6.474 2.531 13.188-.797 6.51-5.557 6.922-6.438 7.203-.375.12-3.839.974-8.203.693 0 0-3.25 3.922-4.266 4.932-.161.177-.349.229-.469.203-.172-.042-.224-.255-.214-.547l.031-5.359c-6.365-1.76-5.99-8.401-5.922-11.87.078-3.469.729-6.307 2.667-8.229 2.609-2.359 7.297-2.677 9.479-2.693zm.48 3.468a.397.397 0 0 0-.401.396c0 .224.182.401.401.401a7.513 7.513 0 0 1 5.375 2.12c1.453 1.411 2.161 3.307 2.188 5.786 0 .219.177.401.401.401v-.016a.4.4 0 0 0 .401-.396 8.614 8.614 0 0 0-2.417-6.349c-1.583-1.547-3.589-2.344-5.948-2.344zm-5.271.917a1.252 1.252 0 0 0-.818.161h-.021A6.276 6.276 0 0 0 8.13 8.067c-.365.422-.563.849-.615 1.26-.031.245-.01.49.063.724l.026.016c.411 1.208.948 2.37 1.604 3.464a20.376 20.376 0 0 0 3.094 4.229l.036.052.057.042.036.042.042.036a20.67 20.67 0 0 0 4.24 3.109c1.76.958 2.828 1.411 3.469 1.599v.01c.188.057.359.083.531.083a2.452 2.452 0 0 0 1.469-.63 6.064 6.064 0 0 0 1.24-1.531v-.01c.307-.578.203-1.125-.24-1.495a18.467 18.467 0 0 0-2.865-2.057c-.682-.37-1.375-.146-1.656.229l-.599.755c-.307.375-.865.323-.865.323l-.016.01c-4.161-1.063-5.271-5.276-5.271-5.276s-.052-.573.333-.865l.75-.604c.359-.292.609-.984.224-1.667a17.992 17.992 0 0 0-2.052-2.865 1.14 1.14 0 0 0-.672-.401zm5.963 1.188c-.531 0-.531.802.005.802a5.026 5.026 0 0 1 3.531 1.531 4.66 4.66 0 0 1 1.198 3.427.403.403 0 0 0 .401.396l.016.021a.404.404 0 0 0 .401-.401c.036-1.589-.458-2.922-1.427-3.99-.974-1.068-2.333-1.667-4.068-1.786h-.057zm.657 2.156c-.547-.016-.568.802-.026.818 1.318.068 1.958.734 2.042 2.104a.398.398 0 0 0 .396.391h.016a.403.403 0 0 0 .385-.427c-.094-1.786-1.068-2.792-2.797-2.885h-.016z"/>
    </symbol>
    <symbol id="icon-whatsapp" viewBox="0 0 32 32">
      <path d="M32 15.573c0 8.604-7.04 15.573-15.716 15.573-2.738 0-5.333-.711-7.609-1.956l-8.676 2.809 2.844-8.356a15.519 15.519 0 0 1-2.24-8.036C.567 6.967 7.607-.002 16.283-.002s15.716 6.969 15.716 15.573zM16.284 2.489c-7.289 0-13.191 5.867-13.191 13.084 0 2.88.924 5.511 2.524 7.68l-1.636 4.871 5.084-1.6a13.085 13.085 0 0 0 7.253 2.169c7.253 0 13.191-5.867 13.191-13.12S23.571 2.489 16.282 2.489zm7.929 16.675c-.107-.142-.356-.249-.747-.462-.391-.178-2.276-1.102-2.631-1.244s-.604-.178-.853.178c-.249.391-.996 1.244-1.209 1.493s-.462.284-.818.107c-.391-.178-1.636-.604-3.093-1.884-1.138-.996-1.92-2.276-2.133-2.631-.213-.391-.036-.604.178-.782.178-.178.391-.462.569-.676s.249-.391.391-.64c.142-.249.071-.462-.036-.676-.107-.178-.853-2.062-1.173-2.844-.32-.747-.64-.64-.853-.64s-.498-.036-.747-.036-.676.107-1.031.462c-.356.391-1.351 1.316-1.351 3.2s1.387 3.698 1.564 3.947c.178.249 2.667 4.231 6.578 5.76s3.911 1.031 4.622.96c.711-.071 2.276-.924 2.596-1.813.284-.853.284-1.6.178-1.778z"/>
    </symbol>
    <symbol id="icon-phone" viewBox="0 0 32 32">
      <path d="m28.865 21.822-4.525-.517a3.543 3.543 0 0 0-2.921 1.015l-3.278 3.278A26.8 26.8 0 0 1 6.402 13.859l3.296-3.296a3.545 3.545 0 0 0 1.015-2.921l-.517-4.489A3.566 3.566 0 0 0 6.651 0H3.569C1.556 0-.118 1.675.006 3.687.95 18.9 13.117 31.049 28.312 31.993c2.013.125 3.687-1.55 3.687-3.563v-3.082c.018-1.799-1.336-3.313-3.135-3.527z"/>
    </symbol>
    <symbol id="icon-person" viewBox="0 0 32 32">
      <path d="M16 16c4.42 0 8-3.58 8-8s-3.58-8-8-8-8 3.58-8 8 3.58 8 8 8zm0 4c-5.34 0-16 2.68-16 8v2c0 1.1.9 2 2 2h28c1.1 0 2-.9 2-2v-2c0-5.32-10.66-8-16-8z"/>
    </symbol>
    <symbol id="icon-clock" viewBox="0 0 32 32">
      <path d="M14.906 1.038c-.1.012-.456.056-.781.094-3.194.363-6.362 1.913-8.719 4.275-2.375 2.369-3.806 5.294-4.294 8.75-.106.738-.1 2.962.006 3.719.469 3.394 1.925 6.363 4.287 8.725 2.338 2.337 5.356 3.819 8.719 4.281.769.106 2.981.106 3.75 0 3.381-.462 6.363-1.925 8.719-4.288 2.356-2.35 3.831-5.356 4.288-8.719.106-.769.106-2.988 0-3.75-.462-3.381-1.925-6.356-4.288-8.725-2.3-2.3-5.219-3.763-8.5-4.25-.6-.087-2.8-.169-3.188-.113zm2.35 2.025c5.131.513 9.488 4 11.081 8.875.881 2.7.881 5.438 0 8.125-2.056 6.281-8.569 10.031-15.019 8.65-3.938-.844-7.219-3.4-8.981-6.994a12.976 12.976 0 0 1 5.944-17.381 13.037 13.037 0 0 1 6.975-1.275z"/>
      <path d="M15 12.094c0 3.375.012 4.131.088 4.3.05.113 1.2 1.313 2.625 2.731l2.538 2.531.7-.706.706-.7-4.656-4.656V8h-2v4.094z"/>
    </symbol>
    <symbol id="icon-map" viewBox="0 0 32 32">
      <path d="M2.667 13.333c0 11.321 12.168 18.211 12.685 18.499.187.106.41.168.648.168s.461-.062.655-.172l-.007.003c.517-.288 12.685-7.177 12.685-18.499C29.333 5.968 23.363-.001 16-.001S2.667 5.969 2.667 13.332zM16 2.667c5.888.007 10.66 4.778 10.667 10.666v.001c0 8.365-8.267 14.24-10.667 15.773-2.4-1.533-10.667-7.408-10.667-15.773.007-5.888 4.778-10.66 10.666-10.667H16z"/>
      <path d="M16 20a6.667 6.667 0 1 0-6.667-6.667A6.676 6.676 0 0 0 15.999 20zm0-10.667a4 4 0 1 1-4 4 4 4 0 0 1 4-4z"/>
    </symbol>
    <symbol id="icon-logo" viewBox="0 0 214 32">
      <path d="M10.508 28.8H2.326L16.181.873h10.364L31.127 28.8h-8.182L20.218 8.564H20L10.509 28.8zm.328-11.018h15.382l-.982 5.673H9.854l.982-5.673zM35.736 28.8 40.372.873h12.054c2.073 0 3.823.377 5.25 1.132s2.455 1.841 3.082 3.259.777 3.118.45 5.1c-.327 2-1.05 3.686-2.168 5.059-1.109 1.364-2.523 2.4-4.241 3.109-1.709.7-3.627 1.05-5.755 1.05h-7.2l.982-5.891h5.673c.891 0 1.673-.109 2.346-.327.673-.227 1.218-.582 1.636-1.064.418-.491.691-1.136.818-1.936s.064-1.45-.191-1.95c-.255-.509-.677-.882-1.268-1.118-.591-.245-1.323-.368-2.196-.368h-2.673l-3.655 21.873h-7.582zm18.491-12.818L59.082 28.8h-8.236l-4.691-12.818h8.073zM66.518 6.982 67.554.873h24.273l-1.036 6.109h-8.4l-3.6 21.818h-7.473l3.6-21.818h-8.4zM91.964 28.8 96.6.873h20.127l-1.036 6.109h-12.546l-.764 4.8h11.509l-1.036 6.109h-11.509l-.764 4.8h12.491l-1.036 6.109H91.963zM117.771 28.8 122.407.873h12.055c2.073 0 3.823.377 5.25 1.132s2.454 1.841 3.082 3.259c.628 1.418.777 3.118.45 5.1-.327 2-1.05 3.686-2.168 5.059-1.109 1.364-2.523 2.4-4.241 3.109-1.709.7-3.627 1.05-5.755 1.05h-7.2l.982-5.891h5.673c.891 0 1.673-.109 2.345-.327.673-.227 1.218-.582 1.636-1.064.418-.491.691-1.136.818-1.936s.064-1.45-.191-1.95c-.254-.509-.677-.882-1.268-1.118-.591-.245-1.323-.368-2.196-.368h-2.673l-3.654 21.873h-7.582zm18.491-12.818 4.854 12.818h-8.236l-4.691-12.818h8.073zM157.934.872l-4.636 27.927h-7.582L150.352.872h7.582zM179.975.872h7.582l-2.973 17.891c-.345 2.127-1.155 3.968-2.427 5.523-1.264 1.545-2.873 2.741-4.827 3.586-1.955.836-4.127 1.255-6.518 1.255-2.409 0-4.445-.418-6.109-1.255-1.663-.845-2.873-2.041-3.627-3.586-.745-1.555-.945-3.395-.6-5.523L163.449.872h7.582l-2.864 17.236c-.136.864-.068 1.632.205 2.305s.714 1.205 1.323 1.595c.609.382 1.346.573 2.209.573.873 0 1.677-.191 2.413-.573.746-.391 1.364-.923 1.855-1.595s.804-1.441.941-2.305L179.977.872zM206.662 9.6c.082-.9-.136-1.605-.655-2.114-.518-.518-1.391-.777-2.618-.777-.782 0-1.436.091-1.964.273-.518.182-.923.432-1.213.75a2.203 2.203 0 0 0-.532 1.105c-.082.327-.077.627.013.9.1.264.286.505.559.723.282.218.65.414 1.105.586.464.173 1.014.327 1.65.464l2.182.491c1.491.327 2.741.759 3.75 1.295 1.018.527 1.818 1.155 2.4 1.882s.964 1.541 1.146 2.441c.191.9.196 1.882.013 2.945-.309 1.836-1.023 3.391-2.141 4.664s-2.577 2.241-4.377 2.905c-1.8.664-3.882.995-6.245.995-2.418 0-4.473-.359-6.164-1.077-1.682-.727-2.9-1.836-3.655-3.327-.745-1.5-.927-3.414-.545-5.741h7.2c-.109.855-.018 1.573.273 2.155s.759 1.023 1.404 1.323 1.45.45 2.414.45c.818 0 1.518-.1 2.1-.3s1.041-.477 1.377-.832c.336-.355.541-.759.614-1.214.073-.418 0-.791-.218-1.118s-.614-.623-1.186-.886c-.573-.264-1.359-.505-2.359-.723l-2.673-.6c-2.373-.545-4.164-1.445-5.373-2.7s-1.636-2.973-1.282-5.155c.291-1.782 1.023-3.336 2.196-4.664 1.182-1.336 2.682-2.373 4.5-3.109 1.827-.745 3.85-1.118 6.068-1.118 2.255 0 4.141.377 5.659 1.132 1.527.755 2.623 1.814 3.286 3.177.673 1.364.854 2.964.545 4.8h-7.254z"/>
    </symbol>
    <symbol id="icon-tel" viewBox="0 0 32 32">
      <path d="M7.125 3.1c-.525.144-.85.362-1.5 1.019-1.181 1.188-1.756 2.263-2.106 3.944-.169.806-.15 2.525.038 3.594.637 3.625 2.681 7.275 5.85 10.438 1.894 1.9 3.775 3.269 5.938 4.337 4.4 2.175 8.519 2.256 11.194.219.556-.425 1.475-1.369 1.637-1.694.381-.744.419-1.613.1-2.337-.156-.363-.363-.587-2.019-2.262-1.019-1.025-1.975-1.944-2.131-2.044-.769-.488-1.962-.5-2.731-.025-.094.056-.656.587-1.244 1.169-.856.85-1.094 1.05-1.194 1.019-.212-.069-1.581-.988-2.3-1.55-2.144-1.669-4.306-4.081-5.5-6.131l-.169-.3 1.056-1.075c1.3-1.325 1.469-1.6 1.506-2.513.031-.656-.069-1.056-.369-1.531-.094-.156-1-1.1-2.006-2.1C9.25 3.358 9.069 3.214 8.388 3.071a2.616 2.616 0 0 0-1.263.031zm1.019 1.844c.194.1 3.344 3.244 3.456 3.444a1.1 1.1 0 0 1 .088.431c0 .262-.019.287-1.338 1.613-.738.744-1.369 1.431-1.406 1.525-.125.325-.075.55.25 1.162 1.381 2.594 3.956 5.519 6.65 7.55.656.5 1.806 1.244 2.469 1.613 1.05.575 1.025.587 2.656-1.031.725-.712 1.375-1.331 1.45-1.369a.875.875 0 0 1 .663 0c.194.1 3.344 3.244 3.456 3.444.231.438.044.813-.738 1.5-.8.694-1.462 1.031-2.519 1.275-.669.156-2.306.163-3.156.006-1.956-.356-4.069-1.25-5.988-2.525-6.012-4-9.819-10.869-8.662-15.631.05-.231.237-.706.406-1.056.25-.531.394-.731.85-1.213.306-.319.638-.625.737-.694a.723.723 0 0 1 .675-.044zM15.25 3.987c-.625.313-.675 1.231-.094 1.612.119.075.381.125.894.162.919.063 1.719.194 2.425.394 4.125 1.2 7.1 4.931 7.313 9.188.044.844.1 1.038.369 1.269.45.4 1.106.281 1.406-.244.137-.25.144-.3.106-1.05a12.019 12.019 0 0 0-8.2-10.806c-1.569-.531-3.688-.794-4.219-.525z"/>
      <path d="M15.463 7.881c-.438.088-.713.431-.713.887 0 .181.044.381.113.494.188.319.412.412 1.2.481 1.637.144 2.869.706 3.969 1.806 1.081 1.081 1.625 2.281 1.806 3.956.094.9.163 1.05.575 1.244a.907.907 0 0 0 1.281-.581c.131-.494-.094-2.037-.444-2.988-.988-2.706-3.4-4.731-6.188-5.2-.688-.119-1.331-.156-1.6-.1z"/>
    </symbol>
    <symbol id="icon-clock" viewBox="0 0 32 32">
      <path d="M20.586 23.414 14 16.828V8h4v7.172l5.414 5.414zM16 0C7.163 0 0 7.163 0 16s7.163 16 16 16 16-7.163 16-16S24.837 0 16 0zm0 28C9.373 28 4 22.627 4 16S9.373 4 16 4s12 5.373 12 12-5.373 12-12 12z"/>
    </symbol>
    <svg xmlns="http://www.w3.org/2000/svg" aria-hidden="true" style="position:absolute;width:0;height:0;overflow:hidden">
    <symbol id="icon-close" viewBox="0 0 32 32">
      <path stroke-linecap="round" stroke-linejoin="round" stroke-width="2" d="m7 7 18 18M7 25 25 7"/>
    </symbol>
    <symbol id="icon-clock" viewBox="0 0 32 32">
      <path d="M20.586 23.414 14 16.828V8h4v7.172l5.414 5.414zM16 0C7.163 0 0 7.163 0 16s7.163 16 16 16 16-7.163 16-16S24.837 0 16 0zm0 28C9.373 28 4 22.627 4 16S9.373 4 16 4s12 5.373 12 12-5.373 12-12 12z"/>
    </symbol>

</svg>
  </defs>
</svg>