<svg aria-hidden="true" style="position: absolute; width: 0; height: 0; overflow: hidden;" version="1.1" xmlns="http://www.w3.org/2000/svg" xmlns:xlink="http://www.w3.org/1999/xlink">
<defs>
<symbol id="icon-untitled" viewBox="0 0 37 32">
<path d="M1.824 30.428c-0.071-0.085-0.074-7.701-0.003-7.771 0.028-0.028 1.723-0.057 3.765-0.063l3.713-0.011v-3.247l-3.718-0.014c-2.045-0.008-3.739-0.021-3.765-0.030-0.063-0.021-0.059-16.527 0.004-16.59s22.395-0.061 22.458 0.003c0.048 0.048 0.070 16.539 0.022 16.586-0.014 0.014-1.721 0.030-3.794 0.035l-3.768 0.010v3.247l3.747 0.014c2.061 0.008 3.77 0.022 3.797 0.031s0.048 0.844 0.047 1.854c-0.002 1.618 0.009 1.842 0.090 1.873 0.051 0.020 0.984 0.034 2.074 0.032l1.982-0.003 0.655-0.307c0.36-0.169 0.702-0.353 0.759-0.41s0.157-0.103 0.222-0.103c0.065 0 0.119-0.033 0.121-0.074s0.107-0.154 0.233-0.251c0.127-0.097 0.232-0.22 0.233-0.273s0.042-0.128 0.089-0.168c0.097-0.081 0.483-0.889 0.459-0.962-0.008-0.026 0.028-0.13 0.080-0.232s0.102-0.24 0.11-0.308c0.014-0.12 0.125-0.679 0.194-0.98 0.059-0.256 0.075-0.585 0.092-1.855 0.015-1.080 0.029-1.243 0.116-1.298 0.196-0.124 0.222 0.027 0.223 1.326 0.002 1.489-0.034 1.994-0.186 2.624-0.031 0.13-0.071 0.3-0.087 0.378s-0.058 0.193-0.092 0.256c-0.034 0.063-0.073 0.181-0.088 0.263-0.036 0.2-0.314 0.745-0.407 0.799-0.041 0.024-0.090 0.104-0.109 0.177s-0.115 0.187-0.213 0.252c-0.098 0.065-0.179 0.163-0.179 0.218s-0.080 0.147-0.177 0.205c-0.097 0.058-0.177 0.122-0.177 0.144s-0.080 0.072-0.177 0.113c-0.097 0.040-0.177 0.094-0.177 0.118 0 0.044-0.34 0.218-1 0.514l-0.321 0.144-2.091-0.006c-1.526-0.005-2.114 0.012-2.175 0.063-0.069 0.057-0.083 0.383-0.079 1.876 0.003 0.993-0.017 1.813-0.043 1.822s-5.078 0.022-11.226 0.031c-8.198 0.011-11.193-0.003-11.233-0.051zM24 26.539v-3.601h-21.904l-0.015 3.542c-0.008 1.948-0.003 3.575 0.013 3.616 0.022 0.058 2.296 0.070 10.967 0.059l10.939-0.014zM16.243 26.988c-0.169-0.080-0.292-0.267-0.338-0.517-0.050-0.271 0.592-0.751 0.722-0.541 0.019 0.030 0.067 0.042 0.107 0.027 0.104-0.040 0.18 0.022 0.29 0.238 0.124 0.241 0.123 0.426-0.003 0.61-0.185 0.27-0.458 0.334-0.779 0.182zM20.142 27.018c-0.241-0.069-0.364-0.245-0.375-0.535-0.007-0.184 0.027-0.251 0.214-0.417 0.154-0.137 0.261-0.188 0.349-0.167 0.108 0.026 0.251 0.052 0.397 0.074 0.060 0.009 0.232 0.419 0.232 0.555 0 0.146-0.149 0.392-0.292 0.482-0.12 0.076-0.282 0.078-0.525 0.008zM16.41 20.959l0.009-1.594h-6.795v3.188h6.778zM24.016 11.1c0.009-4.335 0.002-7.942-0.016-8.015l-0.032-0.133-21.872 0.029-0.015 7.941c-0.008 4.368-0.004 7.97 0.009 8.005 0.017 0.046 3.14 0.063 10.967 0.059l10.943-0.005zM12.356 14.979c-0.703-0.049-2.080-0.402-2.526-0.647-0.065-0.036-0.331-0.17-0.59-0.298-0.638-0.315-1.627-1.009-2.102-1.477-0.534-0.526-1.529-1.723-1.529-1.839 0-0.046 3.191-3.897 3.246-3.917 0.026-0.010 0.168 0.064 0.315 0.164 0.645 0.435 1.658 0.832 2.786 1.091 0.612 0.141 0.854 0.144 1.846 0.023 0.837-0.102 0.964-0.134 1.781-0.458 0.484-0.192 1.042-0.443 1.239-0.559s0.392-0.196 0.433-0.179c0.041 0.017 0.772 0.882 1.626 1.921l1.552 1.889-0.132 0.218c-0.181 0.298-0.902 1.147-1.389 1.635-0.479 0.48-1.448 1.159-2.142 1.501-0.274 0.135-0.527 0.267-0.561 0.294s-0.142 0.067-0.239 0.089c-0.097 0.023-0.338 0.105-0.534 0.182s-0.449 0.157-0.561 0.176c-0.112 0.019-0.297 0.059-0.411 0.088-0.503 0.128-1.242 0.163-2.109 0.102zM13.918 14.605c0.365-0.048 0.856-0.156 1.092-0.239s0.564-0.199 0.729-0.256c0.426-0.149 1.579-0.754 2.029-1.064 0.466-0.322 1.382-1.223 1.882-1.85 0.369-0.463 0.37-0.466 0.258-0.59-0.062-0.069-0.678-0.816-1.37-1.66s-1.279-1.559-1.305-1.589c-0.028-0.031-0.26 0.050-0.554 0.195-0.511 0.251-1.495 0.647-1.712 0.689-0.065 0.013-0.238 0.049-0.384 0.082-0.441 0.097-1.419 0.196-1.888 0.19-0.486-0.006-1.099-0.125-1.758-0.341-0.236-0.077-0.454-0.14-0.484-0.14-0.094 0-0.84-0.365-1.174-0.575-0.174-0.109-0.337-0.19-0.363-0.181s-0.684 0.788-1.463 1.73l-1.415 1.712 0.123 0.177c0.484 0.699 1.474 1.707 2.112 2.153 0.442 0.308 1.595 0.914 2.026 1.064 0.165 0.058 0.407 0.145 0.536 0.195 0.264 0.101 0.952 0.259 1.447 0.333 0.486 0.073 0.902 0.064 1.637-0.033zM31.091 18.909c-0.007-0.007-0.237-0.029-0.511-0.048-0.306-0.021-0.534-0.067-0.592-0.12-0.052-0.047-0.13-0.085-0.174-0.085-0.113 0-0.779-0.443-0.933-0.62-0.071-0.081-0.153-0.148-0.184-0.148s-0.074-0.060-0.096-0.133c-0.022-0.073-0.069-0.168-0.104-0.212-0.149-0.186-0.142-0.95 0.009-1 0.038-0.013 0.069-0.068 0.069-0.124 0-0.1 0.108-0.27 0.312-0.488 0.1-0.108 0.1-0.119 0.001-0.25-0.057-0.076-0.176-0.17-0.264-0.209s-0.195-0.149-0.237-0.245c-0.042-0.096-0.108-0.174-0.147-0.174s-0.088-0.060-0.111-0.133c-0.022-0.073-0.079-0.176-0.125-0.23-0.070-0.080-0.113-0.29-0.148-0.73-0.023-0.29 0.297-1.21 0.421-1.21 0.056 0 0.475-0.406 0.475-0.46 0-0.072 0.893-0.567 1.063-0.589 0.081-0.011 0.307-0.060 0.502-0.111 0.727-0.187 2.265-0.058 2.863 0.241 0.408 0.204 0.649 0.354 0.649 0.405 0 0.025 0.1 0.14 0.222 0.255 0.44 0.415 0.475 0.452 0.533 0.577 0.353 0.759 0.265 1.539-0.232 2.054-0.158 0.164-0.287 0.315-0.288 0.336s-0.090 0.104-0.199 0.185c-0.197 0.146-0.197 0.146-0.102 0.338 0.052 0.106 0.139 0.207 0.191 0.225 0.251 0.084 0.385 0.833 0.23 1.288-0.141 0.414-1.070 1.162-1.557 1.253-0.070 0.013-0.247 0.052-0.394 0.087-0.231 0.055-1.107 0.111-1.144 0.074zM32.245 18.482c0.328-0.076 0.505-0.157 1.091-0.5 0.245-0.144 0.319-0.228 0.425-0.488 0.149-0.366 0.152-0.412 0.056-0.827-0.047-0.204-0.109-0.323-0.177-0.345-0.058-0.018-0.131-0.082-0.163-0.142-0.077-0.144-0.815-0.488-1.299-0.607-0.397-0.097-1.442-0.104-1.801-0.012-0.563 0.145-1.18 0.523-1.429 0.877-0.158 0.224-0.18 0.3-0.166 0.594 0.008 0.185 0.045 0.366 0.082 0.403s0.067 0.128 0.067 0.203c0 0.075 0.024 0.136 0.054 0.136s0.233 0.12 0.451 0.266c0.218 0.146 0.437 0.266 0.487 0.266s0.135 0.040 0.189 0.089c0.054 0.049 0.254 0.103 0.444 0.119s0.353 0.038 0.362 0.047c0.047 0.047 1.036-0.010 1.327-0.077zM29.668 15.436c0.175-0.083 0.379-0.162 0.454-0.176s0.21-0.042 0.299-0.061c0.090-0.020 0.435-0.042 0.768-0.051 0.657-0.017 1.334 0.099 1.83 0.314l0.281 0.121 0.358-0.232c0.23-0.148 0.401-0.312 0.477-0.456 0.175-0.332 0.341-0.829 0.316-0.947-0.084-0.408-0.196-0.722-0.317-0.886-0.078-0.106-0.124-0.192-0.103-0.192 0.103 0-0.22-0.254-0.639-0.501-0.883-0.521-1.981-0.669-3.076-0.414-0.395 0.092-0.706 0.207-0.941 0.349-0.193 0.116-0.374 0.211-0.402 0.211-0.058 0-0.287 0.261-0.484 0.551-0.25 0.368-0.323 1.088-0.145 1.437 0.062 0.122 0.113 0.269 0.113 0.327s0.035 0.106 0.077 0.106c0.042 0 0.152 0.1 0.244 0.221 0.134 0.178 0.319 0.318 0.553 0.42 0.010 0.004 0.161-0.060 0.336-0.142zM28.753 7.865c0-0.058 0.053-0.143 0.118-0.19s0.119-0.112 0.12-0.146c0.003-0.079 0.628-0.504 0.741-0.504 0.048 0 0.15-0.041 0.227-0.092 0.329-0.216 2.399-0.211 2.73 0.006 0.073 0.048 0.164 0.086 0.204 0.086 0.108 0 0.778 0.451 0.93 0.625 0.13 0.15 0.133 0.319 0.005 0.319-0.035 0-0.271-0.133-0.524-0.295s-0.495-0.295-0.538-0.295c-0.043 0-0.12-0.038-0.171-0.084-0.116-0.105-0.591-0.171-1.244-0.174-0.647-0.002-1.009 0.045-1.245 0.163-0.105 0.052-0.226 0.095-0.269 0.095s-0.209 0.093-0.367 0.207c-0.158 0.114-0.314 0.207-0.347 0.207s-0.093 0.040-0.133 0.089c-0.1 0.121-0.236 0.112-0.236-0.016zM28.753 3.91c0-0.058 0.053-0.143 0.118-0.19s0.119-0.112 0.119-0.146c0.001-0.053 0.487-0.406 0.603-0.438 0.024-0.007 0.17-0.052 0.325-0.1s0.334-0.103 0.399-0.122c0.065-0.018 0.447-0.047 0.85-0.064 0.699-0.029 0.998 0.003 1.6 0.174 0.398 0.113 1.181 0.689 1.181 0.869s-0.253 0.098-0.753-0.245c-0.373-0.255-1.129-0.469-1.726-0.487-0.68-0.021-1.625 0.205-2.014 0.482-0.15 0.107-0.291 0.194-0.314 0.194s-0.081 0.040-0.13 0.089c-0.12 0.12-0.257 0.112-0.257-0.017z" stroke="currentColor" stroke-width="2" fill="currentColor"></path>
</symbol>
</defs>
</svg>
